<svg width="39" height="36" viewBox="0 0 39 36" fill="none" xmlns="http://www.w3.org/2000/svg">
<path d="M22.72 0.279998C25.8667 0.279998 28.6133 0.879999 30.96 2.08C33.3067 3.25333 35.1067 4.92 36.36 7.08C37.64 9.21333 38.28 11.68 38.28 14.48C38.28 16.7467 37.88 18.8533 37.08 20.8C36.3067 22.7467 35.1467 24.3067 33.6 25.48C32.08 26.6267 30.2667 27.2 28.16 27.2C26.7467 27.2 25.5733 26.92 24.64 26.36C23.7333 25.8 23.12 25.0133 22.8 24C22.0533 25.04 21.0933 25.8533 19.92 26.44C18.7467 27 17.4667 27.28 16.08 27.28C14.1067 27.28 12.5467 26.6933 11.4 25.52C10.28 24.32 9.72 22.6933 9.72 20.64C9.72 18.6933 10.12 16.8667 10.92 15.16C11.72 13.4267 12.8267 12.04 14.24 11C15.6533 9.96 17.24 9.44 19 9.44C21.24 9.44 22.76 10.24 23.56 11.84L23.92 9.72H29.44L27.68 19.76C27.6 20.24 27.56 20.6667 27.56 21.04C27.56 22.2133 28.08 22.8 29.12 22.8C30.4 22.8 31.3733 21.9867 32.04 20.36C32.7333 18.7067 33.08 16.8133 33.08 14.68C33.08 11.6133 32.1067 9.21333 30.16 7.48C28.24 5.74667 25.5333 4.88 22.04 4.88C19.0533 4.88 16.3333 5.6 13.88 7.04C11.4533 8.48 9.54667 10.4533 8.16 12.96C6.77333 15.44 6.08 18.1733 6.08 21.16C6.08 24.3867 7.01333 26.8933 8.88 28.68C10.7733 30.4667 13.4133 31.36 16.8 31.36C19.44 31.36 21.8 30.88 23.88 29.92L24.96 34.28C22.3467 35.4267 19.4133 36 16.16 36C13.12 36 10.44 35.4133 8.12 34.24C5.82667 33.0667 4.05333 31.4 2.8 29.24C1.54667 27.08 0.92 24.56 0.92 21.68C0.92 17.6533 1.86667 14.0133 3.76 10.76C5.65333 7.48 8.25333 4.92 11.56 3.08C14.8933 1.21333 18.6133 0.279998 22.72 0.279998ZM18.32 22.36C19.0667 22.36 19.76 22.1333 20.4 21.68C21.0667 21.2267 21.5867 20.6267 21.96 19.88C22.36 19.1067 22.56 18.28 22.56 17.4C22.56 16.4933 22.3067 15.76 21.8 15.2C21.2933 14.6133 20.6 14.32 19.72 14.32C18.5467 14.32 17.5733 14.8267 16.8 15.84C16.0267 16.8533 15.64 18.0533 15.64 19.44C15.64 20.32 15.8667 21.0267 16.32 21.56C16.7733 22.0933 17.44 22.36 18.32 22.36Z" fill="white"/>
</svg>
