<svg width="34" height="51" viewBox="0 0 34 51" fill="none" xmlns="http://www.w3.org/2000/svg">
<path d="M32.57 40L23.34 29.48C22.8372 28.9016 22.1852 28.4725 21.455 28.2397C20.7249 28.0069 19.9448 27.9793 19.2 28.16L18.44 28.34C18.0422 28.4369 17.6229 28.3896 17.2567 28.2065C16.8905 28.0234 16.6011 27.7164 16.44 27.34C15.8272 25.8935 15.3875 24.3797 15.13 22.83C15.0813 22.5041 15.1571 22.1718 15.3425 21.8994C15.5278 21.6269 15.809 21.4343 16.13 21.36C16.7583 21.2152 17.3444 20.9268 17.8424 20.5173C18.3404 20.1078 18.7366 19.5884 19 19C19.2697 18.3697 19.3829 17.6835 19.33 17L18.38 4.69997C18.3283 3.93248 18.102 3.18693 17.7183 2.52024C17.3346 1.85354 16.8036 1.28331 16.166 0.853059C15.5283 0.422811 14.8008 0.143919 14.039 0.0376662C13.2771 -0.0685866 12.501 0.00060825 11.77 0.23997L5 2.83997C3.72311 3.25507 2.59481 4.03319 1.75302 5.07921C0.911229 6.12524 0.392418 7.39384 0.260002 8.72997C-1.2 22.21 3.58 37.37 13.78 47.48C14.0424 47.732 14.3612 47.9179 14.7098 48.0223C15.0584 48.1266 15.4269 48.1463 15.7846 48.0799C16.1424 48.0134 16.4792 47.8626 16.767 47.64C17.0549 47.4175 17.2856 47.1295 17.44 46.8L17.5 46.69C17.7001 46.2539 17.7594 45.7664 17.6698 45.2952C17.5802 44.8239 17.3461 44.3922 17 44.06C8.1 35.19 3.91 22 4.84 10.21C4.89684 9.48028 5.17115 8.7844 5.62749 8.21219C6.08383 7.63998 6.70125 7.21773 7.4 6.99997L12 5.10997C12.1942 5.0511 12.3991 5.03642 12.5997 5.06703C12.8003 5.09764 12.9915 5.17275 13.1593 5.28685C13.3271 5.40096 13.4673 5.55117 13.5695 5.72647C13.6717 5.90178 13.7334 6.09773 13.75 6.29997L14.47 15.55C14.4997 15.9267 14.3942 16.3017 14.1725 16.6077C13.9507 16.9138 13.6272 17.1308 13.26 17.22L11.7 17.6C11.1143 17.7451 10.6036 18.1029 10.2672 18.6038C9.93077 19.1048 9.79276 19.7129 9.88 20.31C10.71 25.56 11.88 29.19 14.75 33.56C15.0578 34.0159 15.5123 34.3527 16.038 34.5146C16.5638 34.6765 17.129 34.6537 17.64 34.45L19.75 33.6C20.0602 33.4767 20.4014 33.4548 20.7248 33.5375C21.0481 33.6201 21.337 33.803 21.55 34.06L28.23 42C28.3725 42.1661 28.4725 42.3644 28.5213 42.5778C28.5701 42.7912 28.5663 43.0132 28.5102 43.2248C28.4541 43.4364 28.3474 43.6312 28.1993 43.7923C28.0512 43.9535 27.8661 44.0762 27.66 44.15L23.92 45.47C23.6063 45.5794 23.3193 45.7538 23.0777 45.9818C22.8361 46.2098 22.6454 46.4862 22.5179 46.793C22.3905 47.0997 22.3293 47.43 22.3382 47.762C22.3472 48.0941 22.4262 48.4205 22.57 48.72C22.821 49.2491 23.2606 49.6655 23.8026 49.8875C24.3446 50.1095 24.9499 50.121 25.5 49.92L30.5 48.12C31.288 47.8521 31.9966 47.3919 32.5617 46.7809C33.1268 46.1699 33.5304 45.4275 33.736 44.6211C33.9416 43.8146 33.9426 42.9696 33.739 42.1627C33.5354 41.3557 33.1336 40.6123 32.57 40Z" fill="white"/>
<path d="M22.52 3.34999C22.5583 3.86 22.7539 4.34554 23.0799 4.73961C23.4059 5.13368 23.8462 5.41684 24.34 5.54999C25.3552 5.80639 26.2643 6.37504 26.9391 7.17572C27.6138 7.9764 28.0202 8.9687 28.1008 10.0127C28.1814 11.0566 27.9323 12.0996 27.3885 12.9944C26.8448 13.8892 26.0338 14.5907 25.07 15C24.6007 15.2096 24.2081 15.5599 23.9466 16.0024C23.685 16.4449 23.5674 16.9577 23.61 17.47C23.6454 17.872 23.7768 18.2597 23.9932 18.6003C24.2097 18.941 24.5047 19.2247 24.8536 19.4275C25.2025 19.6304 25.595 19.7465 25.9981 19.7661C26.4012 19.7856 26.8031 19.7081 27.17 19.54C29.0572 18.7009 30.6382 17.298 31.696 15.5241C32.7537 13.7502 33.2363 11.6924 33.0774 9.63318C32.9185 7.57399 32.1259 5.61451 30.8085 4.02392C29.4911 2.43333 27.7136 1.28965 25.72 0.749992C25.3308 0.637475 24.9202 0.620836 24.5232 0.701499C24.1261 0.782161 23.7545 0.957727 23.4401 1.2132C23.1257 1.46867 22.8778 1.79646 22.7176 2.16856C22.5573 2.54066 22.4896 2.94601 22.52 3.34999Z" fill="white"/>
</svg>
